# xmcd
#
# Track frame offsets:
#	150
#	16271
#	31012
#	47058
#	58784
#	72290
#	82562
#	96399
#	111021
#	123112
#	133433
#	149243
#	161404
#	170429
#	184174
#	204016
#	215497
#	228540
#	242783
#	262261
#	283754
#	291909
#	305841
#	322081
#	335745
#
# Disc length: 4618
#
# Revision: 1
# Processed by: cddbd v1.5.1PL0 Copyright (c) Steve Scherf et al.
# Submitted via: CDex 1.51
# Normalized: r0:TDELIM( - )
#
DISCID=83120819
DTITLE=Various Artist - 100 refrains pour la Libération
DYEAR=2004
DGENRE=Jazz
TTITLE0=Louis Armstrong - Jack Armstrong blues
TTITLE1=Louis Armstrong - I'm confessin' (that I love you)
TTITLE2=Duke Ellington - Hollywood hangover
TTITLE3=Duke Ellington - Hop, skip and jump
TTITLE4=Count Basie - Basie strides again
TTITLE5=Count Basie - G.I. Stomp
TTITLE6=Benny Goodman - Dinah
TTITLE7=Benny Goodman - After you've gone
TTITLE8=Louis Jordan - Is you is or is you ain't my baby
TTITLE9=Louis Jordan - Baby, knock me a kiss
TTITLE10=Billie Holiday - Do nothing till you hear from me
TTITLE11=Teddy Wilson Sextet - Blues
TTITLE12=Art Tatum - Liza
TTITLE13=Charlie Barnet - Skyliner
TTITLE14=Louis Prima - Just a gigolo
TTITLE15=King Cole Trio - A trio grooves in Brooklyn
TTITLE16=Jimmy Mundy - Air mail special
TTITLE17=Coleman Hawkins - My ideal
TTITLE18=Sidney Bechet Quartet - Bechet parades the blues
TTITLE19=Fats Waller - Bouncing on a V disc
TTITLE20=Jimmy Rushing - Jimmy's boogie
TTITLE21=Woody Herman - Caldonia
TTITLE22=Benny Carter - Melodrama on a V disc
TTITLE23=Earl Hines - Boogie woogie on St Louis blues
TTITLE24=Jimmy Lunceford - For dancers only
EXTD=YEAR: 2004
EXTT0=
EXTT1=
EXTT2=
EXTT3=
EXTT4=
EXTT5=
EXTT6=
EXTT7=
EXTT8=
EXTT9=
EXTT10=
EXTT11=
EXTT12=
EXTT13=
EXTT14=
EXTT15=
EXTT16=
EXTT17=
EXTT18=
EXTT19=
EXTT20=
EXTT21=
EXTT22=
EXTT23=
EXTT24=
PLAYORDER=
